<svg xmlns="http://www.w3.org/2000/svg" viewBox="0 0 1024 1024" role="img" aria-label="Daily Lesson Notes"><title>Daily Lesson Notes</title><rect width="1024" height="1024" fill="#0f8b91"/><g transform="translate(299.18,133.12) scale(0.98987)"><title>Kabbalah Media</title><defs><linearGradient id="logoGrad" x1="-364.4" x2="-361.6" y1="869.3" y2="869.3" gradientTransform="matrix(0 -190 190 0 -164969.3 -68673)" gradientUnits="userSpaceOnUse"><stop offset="0" stop-color="#faf8f4"/><stop offset="0.3" stop-color="#faf8f4"/><stop offset="1" stop-color="#faf8f4"/></linearGradient><clipPath id="logoClip"><path fill="none" d="M221.6 59.5c-.9 7.1-.8 11.3-3 18.1-1.8 5.7-3.3 8.8-6.5 13.8-3.5 3.7-5.1 6.2-9.1 5.3-2.3-.5-3.7-1.6-5-3.7-3.4-5-18.1-42-20.2-43.6 0 2.7 11.7 43.4 12.7 54.2.9 8.7-.6 15.2-1.4 23.9l-3.2 14.9c-2.3.8-7.5-9-12.1-15.9-4-6-6.1-9.5-9.6-16 1-4.6 1.8-10.1 1.3-17.6s10.6-16.1 10.2-18.6c-.1-.8-3 1.1-5.9 3.1s-5.9 3.9-6.1 3c-.5-2.3-1.2-4.6-2-7-5.2-15.1-18.5-26.8-23.5-30 2.8 7.1 11.7 15.6 15.2 27.8s5 24.6 1.9 27c-4 3.2-14.2-1-22.6-6.2-12.1-7.5-15.8-17.6-19.6-17.6s8.4 12.9 10.1 20.3S98.3 97.3 96 97c-4.1-.5-5 1.6-1.7 2.7 4.9 1.6 13.8 3.2 18.6 3.9 16.1 2.1 30.2 1.7 43.3 14.3 10.9 10.5 14.8 20.2 17.1 35.6 1.3 8.3-9.9 5.3-30.5-7.2-7.4-4.2-16.7-12.1-18-25.8-1.6-3.7-3.5 10.3-1.1 15.7.8 1.9-4.6.5-10.9-.8-5.2-1.1-11.1-2.2-14.4-1.5-4.3 1.1 21.7 3.7 33.7 14 6.4 5.5 27.4 20.9 35.4 28.3 2.3 2.1 1.1 8.1-2.4 9.1-4.2 1.3-11.8.7-19.8-.4-14.3-1.9-20.5-9-27.1-14.8-6.6-5.9-15.1-20.9-15.1-20.9 0 4.8.7 11.9 3.6 16.9 2.6 4.3 4.3 6.7 7.6 10.6 0 0-26.4-6.5-33.4-6.5 1 2.7 17.4 6.3 25.1 10.7 9.2 5.2 40.4 21.2 39.4 23.8-2.1 5.5-28.3 3.7-37.4 4.8-9.3 1.1-23.9 2.7-24 5.7-.1 1.8 5.1 1.3 11.1.8 3.8-.3 8-.6 11.2-.3 15.8 1.5 26.7 1.6 40.3 5.3 9.6 2.6 21.1 9.9 23.2 14.4 2.1 4.4 4.5 8.5 4 21.9l-.9 33c-102.7 1.3-150.2 9.8-150.2 9.8s47.5 8.5 150.2 9.8l.9 33c.4 13.4-1.9 17.5-4 21.9-2.1 4.5-13.6 11.8-23.2 14.4-13.6 3.7-24.5 3.8-40.3 5.3-3.2.3-7.4 0-11.2-.3-6-.5-11.2-1-11.1.8.2 3 14.8 4.6 24 5.7 9.1 1 35.3-.7 37.4 4.8 1 2.7-30.2 18.6-39.4 23.8-7.7 4.5-24.1 8-25.1 10.7 7 0 33.4-6.5 33.4-6.5-3.2 3.9-4.9 6.3-7.6 10.6-3 5-3.6 12.1-3.6 16.9 0 0 8.6-15 15.1-20.9 6.6-5.9 12.7-12.9 27.1-14.8 7.9-1.1 15.5-1.7 19.8-.4 3.4 1.1 4.6 7 2.4 9.1-8 7.4-29 22.9-35.4 28.3-12 10.3-38.1 12.9-33.7 14 3.4.7 9.2-.4 14.4-1.5 6.3-1.3 11.8-2.7 10.9-.8-2.4 5.4-.4 19.4 1.1 15.7 1.3-13.7 10.5-21.6 18-25.8 20.6-12.6 31.7-15.5 30.5-7.2-2.3 15.4-6.2 25.1-17.1 35.6-13.1 12.6-27.2 12.2-43.3 14.3-4.9.6-13.8 2.2-18.6 3.9-3.3 1.1-2.4 3.2 1.7 2.7 2.4-.3 28.9-5 27.2 2.3-1.7 7.4-13.9 20.3-10.1 20.3s7.5-10.2 19.6-17.6c8.4-5.2 18.6-9.4 22.6-6.2 3.1 2.5 1.6 14.8-1.9 27s-12.4 20.6-15.2 27.8c5-3.2 18.3-14.9 23.5-30 .8-2.4 1.5-4.7 2-7 .2-.9 3.2 1.1 6.1 3 2.9 2 5.8 3.9 5.9 3.1.4-2.5-10.6-11.1-10.2-18.6.5-7.5-.3-12.9-1.3-17.6 3.4-6.4 5.6-9.9 9.6-16 4.6-6.9 9.8-16.7 12.1-15.9l3.2 14.9c.8 8.7 2.3 15.3 1.4 23.9-1 10.8-12.7 51.5-12.7 54.2 2-1.6 16.8-38.6 20.2-43.6 1.3-2.1 2.7-3.2 5-3.7 4-.9 5.6 1.6 9.1 5.3 3.2 5 4.7 8.1 6.5 13.8 2.2 6.7 2.2 11 3 18.1 1.2 9.9 1.6 15.5 1.5 25.5 3-2.1 7.3-31.4 2.5-48.4s-13.2-19.9-17.1-27.6 3.2-31.3 4-35.6c1.4-7 5.7-9.8 9.4-4.9 2.9 3.9 25 40.5 28.9 51.1 4 10.6 12.4 43.5 14.9 44.6-.3-7.1-6.6-28-7.8-35-1.4-7.6-2.3-15.9-2.3-18.1s7.1 5.7 14.5 12.4 15 13.5 16 12.4c-16.1-17.5-30.7-37.1-39.3-48.8-4.1-5.6-8.8-16.3-8.8-19.1s8.9 5.3 12.7 8.2c7.6 5.8 22 16.4 22.5 12.1 0 0-27.7-24.8-35.7-35.2-8.1-10.4-3.1-14 6.9-15.6s16 3.3 24.1 8.2c8.7 5.2 17.2 14.5 24.2 21.2 7.5 7.2 11.1 11.6 17.6 19.7 3.2-1.2-6.8-16.3-13.4-22.6-6.1-5.8-12.6-13.7-8.1-18.9 2.7-3.1 18.7-2.5 31.6-2 8.9.4 16.3.7 16.6-.1 1-2.6-35.8-10.5-54-10.7-18.2-.1-41.4-16.8-37.7-23s21.6-2.2 52.4 10.4c4.8.4-8.9-8.9-12.9-12 12.4-.4 32.5-9.7 31.9-12.4-19.5 6.2-30.5 6.6-45.1 2.2s-40-13-40-15.8c0-8-.3-18.4.7-32.8l1.1-20.4c98.4-1.6 143.9-9.7 143.9-9.7s-45.5-8.1-143.9-9.7l-1.1-20.4c-1-14.4-.7-24.8-.7-32.8s25.4-11.4 40-15.8 25.5-4 45.1 2.2c.5-2.7-19.5-12-31.9-12.4 4-3.1 17.6-12.4 12.9-12-30.8 12.6-48.7 16.6-52.4 10.4s19.5-22.9 37.7-23 55-8.1 54-10.7c-.3-.8-7.7-.5-16.6 0-12.9.5-29 1-31.6-2-4.5-5.2 1.9-13.1 8.1-18.9 6.6-6.3 16.6-21.4 13.4-22.6-6.5 8-10.1 12.4-17.6 19.7-7 6.8-15.5 16.1-24.2 21.2-8.1 4.8-14.1 9.8-24.1 8.2s-15-5.2-6.9-15.6 35.7-35.2 35.7-35.2c-.5-4.3-14.9 6.3-22.5 12.1-3.7 2.9-12.6 8.7-12.7 5.9 0-2.8 4.7-11.2 8.8-16.8 8.6-11.7 23.2-31.3 39.3-48.8-1-1.1-8.6 5.7-16 12.4-7.4 6.8-14.5 13.5-14.5 12.4 0-2.2.9-10.5 2.3-18.1 1.3-7 7.5-27.9 7.8-35-2.5 1.1-10.9 33.9-14.9 44.6-3.9 10.5-26 47.2-28.9 51.1-3.7 4.9-8 2.2-9.4-4.9-.8-4.3-7.9-27.9-4-35.6s12.3-10.6 17.1-27.6.5-46.3-2.5-48.4c0 10-.3 15.6-1.5 25.5"/></clipPath></defs><g clip-path="url(#logoClip)"><path fill="url(#logoGrad)" d="M22.7 34h354.7v532H22.7z"/></g><path fill="#00b6be" d="M302.3 207c3.4 3.6 8.4 5.5 13.6 4.5s9.2-4.6 10.9-9.3c-3.4-3.6-8.4-5.5-13.6-4.5s-9.2 4.6-10.9 9.3m-28-64.9c0 4.2 3.4 7.5 7.5 7.5s7.5-3.4 7.5-7.5-3.4-7.5-7.5-7.5-7.5 3.4-7.5 7.5M79.2 190.4c1.8 5.7 6.4 10.3 12.5 11.8s12.3-.4 16.6-4.5c-1.8-5.7-6.4-10.3-12.5-11.8s-12.3.4-16.6 4.5M96 160.8c.4-5.3-1.9-10.7-6.5-14.1-4.6-3.3-10.4-3.8-15.4-1.8-.4 5.3 1.9 10.7 6.5 14.1 4.6 3.3 10.4 3.8 15.4 1.8m16.1-75.3c0-3.9-3.1-7-7-7s-7 3.1-7 7 3.1 7 7 7 7-3.1 7-7m1.3 40.4c.3-4.8-1.7-9.6-5.8-12.7-4.1-3-9.4-3.4-13.8-1.6-.3 4.8 1.7 9.6 5.8 12.7 4.1 3 9.4 3.4 13.8 1.6M126.7 227c-4.4-4-10.7-5.7-16.7-4-6.1 1.7-10.5 6.5-12.1 12.2 4.4 4 10.7 5.7 16.7 4 6.1-1.7 10.5-6.5 12.1-12.2m-.5-60.7c0 4.3 3.5 7.8 7.8 7.8s7.8-3.5 7.8-7.8-3.5-7.8-7.8-7.8-7.8 3.5-7.8 7.8m23.5-81.9c.9-5.9-1-12-5.8-16.2-4.8-4.1-11.1-5.2-16.8-3.5-.9 5.9 1 12 5.8 16.2 4.8 4.1 11.1 5.2 16.8 3.5m8.9 53.8c.4-5.3-1.9-10.7-6.5-14.1-4.6-3.3-10.4-3.8-15.4-1.8-.4 5.3 1.9 10.7 6.5 14.1 4.6 3.3 10.4 3.8 15.4 1.8m14.5-80c.9-4.1-.4-8.1-3.2-10.9-3.7 1.3-6.7 4.3-7.6 8.4s.4 8.1 3.2 10.9c3.7-1.3 6.7-4.3 7.6-8.4m11.7 48.1c1.4-4.8 0-9.8-3.1-13.3-4.5 1.3-8.3 4.8-9.7 9.6s0 9.8 3.1 13.3c4.5-1.3 8.3-4.8 9.7-9.6m26-28.7c3.4-5.6 3.9-12.7.8-18.9-1.1-2.1-2.6-3.8-4.2-5.3-3.2-2.9-7.2-4.8-11.5-5.1-3.4 5.6-3.9 12.7-.8 18.9 3.2 6.2 9.2 9.9 15.7 10.5m16.4 25.6c-5.6 1.9-10.2 6.6-11.6 12.7-1.4 6.2.6 12.3 4.8 16.5 5.6-1.9 10.2-6.6 11.6-12.7 1.4-6.2-.6-12.3-4.8-16.5m10.7-18.2c-3.9 0-7 3.1-7 7s3.1 7 7 7 7-3.1 7-7-3.1-7-7-7m9.2-32.1c2.3-4.5 1.9-9.7-.6-13.7-4.7.4-9.2 3.1-11.4 7.6-2.3 4.5-1.9 9.7.6 13.7 4.7-.4 9.2-3.1 11.4-7.6m4 14.2c-3.3-2.1-7.6-2.5-11.3-.7s-6.1 5.4-6.5 9.3c3.3 2.1 7.6 2.5 11.3.7s6.1-5.4 6.5-9.3m11.8 83.9c-4.2 1.4-7.6 4.9-8.7 9.5s.5 9.2 3.6 12.4c4.2-1.5 7.6-4.9 8.7-9.5s-.5-9.2-3.6-12.4m16.6-73.6c3.1-4 3.7-9.1 2.1-13.6-4.7-.5-9.6 1.3-12.7 5.3s-3.7 9.1-2.1 13.6c4.7.5 9.6-1.3 12.7-5.3m19.5 28.7c-4.4-4-10.7-5.7-16.7-4-6.1 1.7-10.5 6.5-12.1 12.2 4.4 4 10.7 5.7 16.7 4 6.1-1.7 10.5-6.5 12.1-12.2m.5 126.3c0-4.6-3.8-8.4-8.4-8.4s-8.4 3.8-8.4 8.4 3.8 8.4 8.4 8.4 8.4-3.7 8.4-8.4m22.6-73.6c-3.3-3-8-4.3-12.5-3-4.6 1.3-7.8 4.9-9.1 9.2 3.3 3 8 4.3 12.6 3s7.8-4.9 9.1-9.2"/></g><g transform="translate(262.17,830.48) scale(0.03910)"><path fill="#faf8f4" d="M669.0 -1303 612.0 -1290Q588.0 -1283 575.0 -1269.0Q562.0 -1255 562.0 -1233V-171Q562.0 -133 584.0 -116.5Q606.0 -100 651.0 -100H817.0Q874.0 -100 914.0 -115.5Q954.0 -131 986.0 -170.0Q1018.0 -209 1051.0 -281L1111.0 -419Q1123.0 -444 1140.5 -452.5Q1158.0 -461 1181.0 -455Q1205.0 -449 1215.0 -432.5Q1225.0 -416 1217.0 -388L1127.0 -36Q1116.0 1 1099.5 19.0Q1083.0 37 1051.0 37Q1030.0 37 1009.5 28.0Q989.0 19 964.5 9.5Q940.0 0 903.0 0H164.0Q133.0 0 118.5 -12.5Q104.0 -25 104.0 -46Q104.0 -84 146.0 -97L203.0 -110Q227.0 -117 240.0 -131.0Q253.0 -145 253.0 -167V-1233Q253.0 -1255 240.0 -1269.0Q227.0 -1283 203.0 -1290L146.0 -1303Q104.0 -1316 104.0 -1354Q104.0 -1376 118.5 -1388.0Q133.0 -1400 164.0 -1400H651.0Q682.0 -1400 696.5 -1388.0Q711.0 -1376 711.0 -1354Q711.0 -1316 669.0 -1303ZM2259.0 -591Q2259.0 -538 2229.0 -509.5Q2199.0 -481 2141.0 -481H1517.0V-557H1926.0Q1977.0 -557 1977.0 -603Q1977.0 -735 1929.0 -803.5Q1881.0 -872 1800.0 -872Q1738.0 -872 1690.0 -834.0Q1642.0 -796 1615.0 -725.5Q1588.0 -655 1588.0 -555Q1588.0 -362 1678.5 -265.0Q1769.0 -168 1920.0 -168Q2008.0 -168 2074.5 -203.0Q2141.0 -238 2178.0 -303Q2196.0 -323 2206.5 -330.0Q2217.0 -337 2228.0 -337Q2244.0 -337 2251.0 -322.5Q2258.0 -308 2258.0 -288Q2254.0 -204 2198.0 -132.5Q2142.0 -61 2047.0 -18.0Q1952.0 25 1829.0 25Q1684.0 25 1572.0 -34.5Q1460.0 -94 1396.5 -201.5Q1333.0 -309 1333.0 -453Q1333.0 -604 1393.5 -721.0Q1454.0 -838 1567.0 -904.0Q1680.0 -970 1837.0 -970Q1971.0 -970 2065.5 -921.5Q2160.0 -873 2209.5 -787.5Q2259.0 -702 2259.0 -591ZM2799.0 -880Q2730.0 -880 2691.5 -845.5Q2653.0 -811 2653.0 -758Q2653.0 -725 2667.5 -698.5Q2682.0 -672 2723.0 -650.0Q2764.0 -628 2843.0 -609Q2997.0 -577 3081.0 -529.0Q3165.0 -481 3198.0 -418.5Q3231.0 -356 3231.0 -279Q3231.0 -140 3133.0 -57.5Q3035.0 25 2848.0 25Q2782.0 25 2740.0 13.5Q2698.0 2 2671.0 -9.5Q2644.0 -21 2623.0 -21Q2602.0 -21 2588.5 -9.5Q2575.0 2 2563.0 13.5Q2551.0 25 2531.0 25Q2513.0 25 2504.0 15.0Q2495.0 5 2487.0 -22L2421.0 -223Q2410.0 -258 2414.5 -280.0Q2419.0 -302 2441.0 -311Q2464.0 -319 2481.0 -310.5Q2498.0 -302 2513.0 -279Q2558.0 -201 2609.0 -154.5Q2660.0 -108 2716.5 -87.0Q2773.0 -66 2832.0 -66Q2918.0 -66 2960.5 -101.0Q3003.0 -136 3003.0 -194Q3003.0 -229 2985.0 -257.5Q2967.0 -286 2918.0 -309.5Q2869.0 -333 2776.0 -354Q2647.0 -382 2570.5 -426.5Q2494.0 -471 2460.5 -534.0Q2427.0 -597 2427.0 -680Q2427.0 -767 2472.0 -832.0Q2517.0 -897 2597.0 -933.5Q2677.0 -970 2782.0 -970Q2850.0 -970 2891.0 -958.0Q2932.0 -946 2958.5 -933.5Q2985.0 -921 3007.0 -921Q3031.0 -921 3045.0 -933.5Q3059.0 -946 3072.0 -958.0Q3085.0 -970 3104.0 -970Q3119.0 -970 3129.5 -959.5Q3140.0 -949 3145.0 -923L3194.0 -732Q3201.0 -695 3197.5 -674.0Q3194.0 -653 3171.0 -644Q3149.0 -635 3132.0 -646.0Q3115.0 -657 3098.0 -685Q3036.0 -791 2957.5 -835.5Q2879.0 -880 2799.0 -880ZM3775.0 -880Q3706.0 -880 3667.5 -845.5Q3629.0 -811 3629.0 -758Q3629.0 -725 3643.5 -698.5Q3658.0 -672 3699.0 -650.0Q3740.0 -628 3819.0 -609Q3973.0 -577 4057.0 -529.0Q4141.0 -481 4174.0 -418.5Q4207.0 -356 4207.0 -279Q4207.0 -140 4109.0 -57.5Q4011.0 25 3824.0 25Q3758.0 25 3716.0 13.5Q3674.0 2 3647.0 -9.5Q3620.0 -21 3599.0 -21Q3578.0 -21 3564.5 -9.5Q3551.0 2 3539.0 13.5Q3527.0 25 3507.0 25Q3489.0 25 3480.0 15.0Q3471.0 5 3463.0 -22L3397.0 -223Q3386.0 -258 3390.5 -280.0Q3395.0 -302 3417.0 -311Q3440.0 -319 3457.0 -310.5Q3474.0 -302 3489.0 -279Q3534.0 -201 3585.0 -154.5Q3636.0 -108 3692.5 -87.0Q3749.0 -66 3808.0 -66Q3894.0 -66 3936.5 -101.0Q3979.0 -136 3979.0 -194Q3979.0 -229 3961.0 -257.5Q3943.0 -286 3894.0 -309.5Q3845.0 -333 3752.0 -354Q3623.0 -382 3546.5 -426.5Q3470.0 -471 3436.5 -534.0Q3403.0 -597 3403.0 -680Q3403.0 -767 3448.0 -832.0Q3493.0 -897 3573.0 -933.5Q3653.0 -970 3758.0 -970Q3826.0 -970 3867.0 -958.0Q3908.0 -946 3934.5 -933.5Q3961.0 -921 3983.0 -921Q4007.0 -921 4021.0 -933.5Q4035.0 -946 4048.0 -958.0Q4061.0 -970 4080.0 -970Q4095.0 -970 4105.5 -959.5Q4116.0 -949 4121.0 -923L4170.0 -732Q4177.0 -695 4173.5 -674.0Q4170.0 -653 4147.0 -644Q4125.0 -635 4108.0 -646.0Q4091.0 -657 4074.0 -685Q4012.0 -791 3933.5 -835.5Q3855.0 -880 3775.0 -880ZM4881.0 -970Q5036.0 -970 5153.0 -907.0Q5270.0 -844 5335.5 -731.5Q5401.0 -619 5401.0 -470Q5401.0 -329 5333.5 -217.0Q5266.0 -105 5147.0 -40.0Q5028.0 25 4871.0 25Q4717.0 25 4600.5 -39.0Q4484.0 -103 4418.0 -215.5Q4352.0 -328 4352.0 -475Q4352.0 -618 4419.5 -729.5Q4487.0 -841 4606.0 -905.5Q4725.0 -970 4881.0 -970ZM4952.0 -80Q5020.0 -90 5061.5 -142.5Q5103.0 -195 5114.5 -287.0Q5126.0 -379 5102.0 -508Q5079.0 -637 5035.0 -720.5Q4991.0 -804 4931.0 -841.0Q4871.0 -878 4801.0 -866Q4732.0 -855 4690.5 -802.5Q4649.0 -750 4638.5 -658.5Q4628.0 -567 4651.0 -437Q4674.0 -309 4718.0 -225.5Q4762.0 -142 4822.0 -105.0Q4882.0 -68 4952.0 -80ZM5943.0 -902V-160Q5943.0 -129 5952.0 -115.0Q5961.0 -101 5979.0 -94L6015.0 -84Q6047.0 -71 6047.0 -44Q6047.0 0 5991.0 0H5605.0Q5577.0 0 5564.0 -11.0Q5551.0 -22 5551.0 -41Q5551.0 -56 5559.5 -66.5Q5568.0 -77 5587.0 -84L5627.0 -94Q5645.0 -101 5653.5 -115.0Q5662.0 -129 5662.0 -160V-733Q5662.0 -759 5654.5 -770.0Q5647.0 -781 5630.0 -784L5577.0 -788Q5559.0 -792 5551.0 -801.0Q5543.0 -810 5543.0 -824Q5543.0 -841 5552.5 -851.0Q5562.0 -861 5589.0 -871L5775.0 -939Q5813.0 -953 5836.0 -959.0Q5859.0 -965 5880.0 -965Q5911.0 -965 5927.0 -947.5Q5943.0 -930 5943.0 -902ZM5913.0 -679 5867.0 -726 5906.0 -761Q6033.0 -877 6127.5 -923.5Q6222.0 -970 6305.0 -970Q6434.0 -970 6512.5 -888.0Q6591.0 -806 6591.0 -668V-163Q6591.0 -130 6600.5 -115.0Q6610.0 -100 6629.0 -94L6664.0 -84Q6684.0 -77 6692.5 -66.5Q6701.0 -56 6701.0 -41Q6701.0 -22 6688.0 -11.0Q6675.0 0 6647.0 0H6260.0Q6204.0 0 6204.0 -44Q6204.0 -71 6235.0 -84L6273.0 -94Q6293.0 -101 6301.5 -116.0Q6310.0 -131 6310.0 -163V-627Q6310.0 -715 6267.0 -758.5Q6224.0 -802 6152.0 -802Q6107.0 -802 6056.5 -781.0Q6006.0 -760 5953.0 -714ZM7731.0 -46Q7731.0 -25 7716.5 -13.0Q7702.0 -1 7670.0 0H7338.0Q7307.0 -1 7291.5 -13.0Q7276.0 -25 7276.0 -46Q7276.0 -81 7320.0 -98L7367.0 -112Q7413.0 -129 7430.0 -150.0Q7447.0 -171 7447.0 -218V-1088Q7447.0 -1120 7439.0 -1140.0Q7431.0 -1160 7402.0 -1195L7318.0 -1301Q7302.0 -1323 7296.0 -1335.0Q7290.0 -1347 7290.0 -1359Q7290.0 -1379 7303.5 -1389.5Q7317.0 -1400 7340.0 -1400H7569.0Q7599.0 -1400 7618.5 -1389.5Q7638.0 -1379 7659.0 -1351L8436.0 -320L8389.0 -204V-1182Q8389.0 -1228 8373.5 -1249.5Q8358.0 -1271 8309.0 -1288L8262.0 -1302Q8218.0 -1321 8218.0 -1354Q8218.0 -1376 8233.0 -1388.0Q8248.0 -1400 8279.0 -1400H8611.0Q8643.0 -1400 8658.0 -1388.0Q8673.0 -1376 8673.0 -1354Q8673.0 -1320 8629.0 -1302L8582.0 -1288Q8536.0 -1272 8519.5 -1251.0Q8503.0 -1230 8503.0 -1182V-286Q8503.0 -254 8508.5 -231.0Q8514.0 -208 8529.0 -188L8591.0 -107Q8609.0 -82 8613.5 -69.5Q8618.0 -57 8618.0 -44Q8618.0 -24 8604.0 -12.0Q8590.0 0 8565.0 0H8299.0Q8251.0 0 8251.0 -38Q8251.0 -54 8245.0 -68.5Q8239.0 -83 8210.0 -122L7466.0 -1112L7561.0 -1178V-218Q7561.0 -173 7576.5 -151.5Q7592.0 -130 7640.0 -112L7687.0 -98Q7731.0 -80 7731.0 -46ZM9339.0 -970Q9494.0 -970 9611.0 -907.0Q9728.0 -844 9793.5 -731.5Q9859.0 -619 9859.0 -470Q9859.0 -329 9791.5 -217.0Q9724.0 -105 9605.0 -40.0Q9486.0 25 9329.0 25Q9175.0 25 9058.5 -39.0Q8942.0 -103 8876.0 -215.5Q8810.0 -328 8810.0 -475Q8810.0 -618 8877.5 -729.5Q8945.0 -841 9064.0 -905.5Q9183.0 -970 9339.0 -970ZM9410.0 -80Q9478.0 -90 9519.5 -142.5Q9561.0 -195 9572.5 -287.0Q9584.0 -379 9560.0 -508Q9537.0 -637 9493.0 -720.5Q9449.0 -804 9389.0 -841.0Q9329.0 -878 9259.0 -866Q9190.0 -855 9148.5 -802.5Q9107.0 -750 9096.5 -658.5Q9086.0 -567 9109.0 -437Q9132.0 -309 9176.0 -225.5Q9220.0 -142 9280.0 -105.0Q9340.0 -68 9410.0 -80ZM10056.0 -849 10010.0 -863Q9986.0 -871 9976.0 -881.5Q9966.0 -892 9966.0 -906Q9966.0 -926 9979.5 -936.5Q9993.0 -947 10016.0 -947H10077.0Q10101.0 -947 10117.0 -956.0Q10133.0 -965 10150.0 -988L10259.0 -1141Q10280.0 -1167 10299.0 -1179.0Q10318.0 -1191 10337.0 -1191Q10358.0 -1191 10370.0 -1178.0Q10382.0 -1165 10382.0 -1140V-285Q10382.0 -215 10409.5 -178.0Q10437.0 -141 10486.0 -141Q10523.0 -141 10543.5 -155.5Q10564.0 -170 10576.0 -189.0Q10588.0 -208 10599.5 -222.5Q10611.0 -237 10629.0 -238Q10644.0 -238 10652.5 -228.0Q10661.0 -218 10661.0 -195Q10660.0 -138 10623.5 -89.0Q10587.0 -40 10522.0 -9.5Q10457.0 21 10374.0 21Q10246.0 21 10173.5 -43.5Q10101.0 -108 10101.0 -238V-790Q10101.0 -816 10090.5 -828.5Q10080.0 -841 10056.0 -849ZM10271.0 -848V-947H10602.0Q10625.0 -947 10638.5 -937.5Q10652.0 -928 10652.0 -910Q10652.0 -884 10626.0 -866.0Q10600.0 -848 10542.0 -848ZM11704.0 -591Q11704.0 -538 11674.0 -509.5Q11644.0 -481 11586.0 -481H10962.0V-557H11371.0Q11422.0 -557 11422.0 -603Q11422.0 -735 11374.0 -803.5Q11326.0 -872 11245.0 -872Q11183.0 -872 11135.0 -834.0Q11087.0 -796 11060.0 -725.5Q11033.0 -655 11033.0 -555Q11033.0 -362 11123.5 -265.0Q11214.0 -168 11365.0 -168Q11453.0 -168 11519.5 -203.0Q11586.0 -238 11623.0 -303Q11641.0 -323 11651.5 -330.0Q11662.0 -337 11673.0 -337Q11689.0 -337 11696.0 -322.5Q11703.0 -308 11703.0 -288Q11699.0 -204 11643.0 -132.5Q11587.0 -61 11492.0 -18.0Q11397.0 25 11274.0 25Q11129.0 25 11017.0 -34.5Q10905.0 -94 10841.5 -201.5Q10778.0 -309 10778.0 -453Q10778.0 -604 10838.5 -721.0Q10899.0 -838 11012.0 -904.0Q11125.0 -970 11282.0 -970Q11416.0 -970 11510.5 -921.5Q11605.0 -873 11654.5 -787.5Q11704.0 -702 11704.0 -591ZM12244.0 -880Q12175.0 -880 12136.5 -845.5Q12098.0 -811 12098.0 -758Q12098.0 -725 12112.5 -698.5Q12127.0 -672 12168.0 -650.0Q12209.0 -628 12288.0 -609Q12442.0 -577 12526.0 -529.0Q12610.0 -481 12643.0 -418.5Q12676.0 -356 12676.0 -279Q12676.0 -140 12578.0 -57.5Q12480.0 25 12293.0 25Q12227.0 25 12185.0 13.5Q12143.0 2 12116.0 -9.5Q12089.0 -21 12068.0 -21Q12047.0 -21 12033.5 -9.5Q12020.0 2 12008.0 13.5Q11996.0 25 11976.0 25Q11958.0 25 11949.0 15.0Q11940.0 5 11932.0 -22L11866.0 -223Q11855.0 -258 11859.5 -280.0Q11864.0 -302 11886.0 -311Q11909.0 -319 11926.0 -310.5Q11943.0 -302 11958.0 -279Q12003.0 -201 12054.0 -154.5Q12105.0 -108 12161.5 -87.0Q12218.0 -66 12277.0 -66Q12363.0 -66 12405.5 -101.0Q12448.0 -136 12448.0 -194Q12448.0 -229 12430.0 -257.5Q12412.0 -286 12363.0 -309.5Q12314.0 -333 12221.0 -354Q12092.0 -382 12015.5 -426.5Q11939.0 -471 11905.5 -534.0Q11872.0 -597 11872.0 -680Q11872.0 -767 11917.0 -832.0Q11962.0 -897 12042.0 -933.5Q12122.0 -970 12227.0 -970Q12295.0 -970 12336.0 -958.0Q12377.0 -946 12403.5 -933.5Q12430.0 -921 12452.0 -921Q12476.0 -921 12490.0 -933.5Q12504.0 -946 12517.0 -958.0Q12530.0 -970 12549.0 -970Q12564.0 -970 12574.5 -959.5Q12585.0 -949 12590.0 -923L12639.0 -732Q12646.0 -695 12642.5 -674.0Q12639.0 -653 12616.0 -644Q12594.0 -635 12577.0 -646.0Q12560.0 -657 12543.0 -685Q12481.0 -791 12402.5 -835.5Q12324.0 -880 12244.0 -880Z"/></g></svg>
