<svg xmlns="http://www.w3.org/2000/svg" viewBox="0 0 1024 1024" role="img" aria-label="Daily Lesson Notes"><title>Daily Lesson Notes</title><rect width="1024" height="1024" fill="#ffffff"/><g transform="translate(383.57,214.31) scale(0.59733)"><title>Kabbalah Media</title><defs><linearGradient id="logoGrad" x1="-364.4" x2="-361.6" y1="869.3" y2="869.3" gradientTransform="matrix(0 -190 190 0 -164969.3 -68673)" gradientUnits="userSpaceOnUse"><stop offset="0" stop-color="#00b6be"/><stop offset="0.3" stop-color="#00b6be"/><stop offset="1" stop-color="#fff"/></linearGradient><clipPath id="logoClip"><path fill="none" d="M221.6 59.5c-.9 7.1-.8 11.3-3 18.1-1.8 5.7-3.3 8.8-6.5 13.8-3.5 3.7-5.1 6.2-9.1 5.3-2.3-.5-3.7-1.6-5-3.7-3.4-5-18.1-42-20.2-43.6 0 2.7 11.7 43.4 12.7 54.2.9 8.7-.6 15.2-1.4 23.9l-3.2 14.9c-2.3.8-7.5-9-12.1-15.9-4-6-6.1-9.5-9.6-16 1-4.6 1.8-10.1 1.3-17.6s10.6-16.1 10.2-18.6c-.1-.8-3 1.1-5.9 3.1s-5.9 3.9-6.1 3c-.5-2.3-1.2-4.6-2-7-5.2-15.1-18.5-26.8-23.5-30 2.8 7.1 11.7 15.6 15.2 27.8s5 24.6 1.9 27c-4 3.2-14.2-1-22.6-6.2-12.1-7.5-15.8-17.6-19.6-17.6s8.4 12.9 10.1 20.3S98.3 97.3 96 97c-4.1-.5-5 1.6-1.7 2.7 4.9 1.6 13.8 3.2 18.6 3.9 16.1 2.1 30.2 1.7 43.3 14.3 10.9 10.5 14.8 20.2 17.1 35.6 1.3 8.3-9.9 5.3-30.5-7.2-7.4-4.2-16.7-12.1-18-25.8-1.6-3.7-3.5 10.3-1.1 15.7.8 1.9-4.6.5-10.9-.8-5.2-1.1-11.1-2.2-14.4-1.5-4.3 1.1 21.7 3.7 33.7 14 6.4 5.5 27.4 20.9 35.4 28.3 2.3 2.1 1.1 8.1-2.4 9.1-4.2 1.3-11.8.7-19.8-.4-14.3-1.9-20.5-9-27.1-14.8-6.6-5.9-15.1-20.9-15.1-20.9 0 4.8.7 11.9 3.6 16.9 2.6 4.3 4.3 6.7 7.6 10.6 0 0-26.4-6.5-33.4-6.5 1 2.7 17.4 6.3 25.1 10.7 9.2 5.2 40.4 21.2 39.4 23.8-2.1 5.5-28.3 3.7-37.4 4.8-9.3 1.1-23.9 2.7-24 5.7-.1 1.8 5.1 1.3 11.1.8 3.8-.3 8-.6 11.2-.3 15.8 1.5 26.7 1.6 40.3 5.3 9.6 2.6 21.1 9.9 23.2 14.4 2.1 4.4 4.5 8.5 4 21.9l-.9 33c-102.7 1.3-150.2 9.8-150.2 9.8s47.5 8.5 150.2 9.8l.9 33c.4 13.4-1.9 17.5-4 21.9-2.1 4.5-13.6 11.8-23.2 14.4-13.6 3.7-24.5 3.8-40.3 5.3-3.2.3-7.4 0-11.2-.3-6-.5-11.2-1-11.1.8.2 3 14.8 4.6 24 5.7 9.1 1 35.3-.7 37.4 4.8 1 2.7-30.2 18.6-39.4 23.8-7.7 4.5-24.1 8-25.1 10.7 7 0 33.4-6.5 33.4-6.5-3.2 3.9-4.9 6.3-7.6 10.6-3 5-3.6 12.1-3.6 16.9 0 0 8.6-15 15.1-20.9 6.6-5.9 12.7-12.9 27.1-14.8 7.9-1.1 15.5-1.7 19.8-.4 3.4 1.1 4.6 7 2.4 9.1-8 7.4-29 22.9-35.4 28.3-12 10.3-38.1 12.9-33.7 14 3.4.7 9.2-.4 14.4-1.5 6.3-1.3 11.8-2.7 10.9-.8-2.4 5.4-.4 19.4 1.1 15.7 1.3-13.7 10.5-21.6 18-25.8 20.6-12.6 31.7-15.5 30.5-7.2-2.3 15.4-6.2 25.1-17.1 35.6-13.1 12.6-27.2 12.2-43.3 14.3-4.9.6-13.8 2.2-18.6 3.9-3.3 1.1-2.4 3.2 1.7 2.7 2.4-.3 28.9-5 27.2 2.3-1.7 7.4-13.9 20.3-10.1 20.3s7.5-10.2 19.6-17.6c8.4-5.2 18.6-9.4 22.6-6.2 3.1 2.5 1.6 14.8-1.9 27s-12.4 20.6-15.2 27.8c5-3.2 18.3-14.9 23.5-30 .8-2.4 1.5-4.7 2-7 .2-.9 3.2 1.1 6.1 3 2.9 2 5.8 3.9 5.9 3.1.4-2.5-10.6-11.1-10.2-18.6.5-7.5-.3-12.9-1.3-17.6 3.4-6.4 5.6-9.9 9.6-16 4.6-6.9 9.8-16.7 12.1-15.9l3.2 14.9c.8 8.7 2.3 15.3 1.4 23.9-1 10.8-12.7 51.5-12.7 54.2 2-1.6 16.8-38.6 20.2-43.6 1.3-2.1 2.7-3.2 5-3.7 4-.9 5.6 1.6 9.1 5.3 3.2 5 4.7 8.1 6.5 13.8 2.2 6.7 2.2 11 3 18.1 1.2 9.9 1.6 15.5 1.5 25.5 3-2.1 7.3-31.4 2.5-48.4s-13.2-19.9-17.1-27.6 3.2-31.3 4-35.6c1.4-7 5.7-9.8 9.4-4.9 2.9 3.9 25 40.5 28.9 51.1 4 10.6 12.4 43.5 14.9 44.6-.3-7.1-6.6-28-7.8-35-1.4-7.6-2.3-15.9-2.3-18.1s7.1 5.7 14.5 12.4 15 13.5 16 12.4c-16.1-17.5-30.7-37.1-39.3-48.8-4.1-5.6-8.8-16.3-8.8-19.1s8.9 5.3 12.7 8.2c7.6 5.8 22 16.4 22.5 12.1 0 0-27.7-24.8-35.7-35.2-8.1-10.4-3.1-14 6.9-15.6s16 3.3 24.1 8.2c8.7 5.2 17.2 14.5 24.2 21.2 7.5 7.2 11.1 11.6 17.6 19.7 3.2-1.2-6.8-16.3-13.4-22.6-6.1-5.8-12.6-13.7-8.1-18.9 2.7-3.1 18.7-2.5 31.6-2 8.9.4 16.3.7 16.6-.1 1-2.6-35.8-10.5-54-10.7-18.2-.1-41.4-16.8-37.7-23s21.6-2.2 52.4 10.4c4.8.4-8.9-8.9-12.9-12 12.4-.4 32.5-9.7 31.9-12.4-19.5 6.2-30.5 6.6-45.1 2.2s-40-13-40-15.8c0-8-.3-18.4.7-32.8l1.1-20.4c98.4-1.6 143.9-9.7 143.9-9.7s-45.5-8.1-143.9-9.7l-1.1-20.4c-1-14.4-.7-24.8-.7-32.8s25.4-11.4 40-15.8 25.5-4 45.1 2.2c.5-2.7-19.5-12-31.9-12.4 4-3.1 17.6-12.4 12.9-12-30.8 12.6-48.7 16.6-52.4 10.4s19.5-22.9 37.7-23 55-8.1 54-10.7c-.3-.8-7.7-.5-16.6 0-12.9.5-29 1-31.6-2-4.5-5.2 1.9-13.1 8.1-18.9 6.6-6.3 16.6-21.4 13.4-22.6-6.5 8-10.1 12.4-17.6 19.7-7 6.8-15.5 16.1-24.2 21.2-8.1 4.8-14.1 9.8-24.1 8.2s-15-5.2-6.9-15.6 35.7-35.2 35.7-35.2c-.5-4.3-14.9 6.3-22.5 12.1-3.7 2.9-12.6 8.7-12.7 5.9 0-2.8 4.7-11.2 8.8-16.8 8.6-11.7 23.2-31.3 39.3-48.8-1-1.1-8.6 5.7-16 12.4-7.4 6.8-14.5 13.5-14.5 12.4 0-2.2.9-10.5 2.3-18.1 1.3-7 7.5-27.9 7.8-35-2.5 1.1-10.9 33.9-14.9 44.6-3.9 10.5-26 47.2-28.9 51.1-3.7 4.9-8 2.2-9.4-4.9-.8-4.3-7.9-27.9-4-35.6s12.3-10.6 17.1-27.6.5-46.3-2.5-48.4c0 10-.3 15.6-1.5 25.5"/></clipPath></defs><g clip-path="url(#logoClip)"><path fill="url(#logoGrad)" d="M22.7 34h354.7v532H22.7z"/></g><path fill="#00b6be" d="M302.3 207c3.4 3.6 8.4 5.5 13.6 4.5s9.2-4.6 10.9-9.3c-3.4-3.6-8.4-5.5-13.6-4.5s-9.2 4.6-10.9 9.3m-28-64.9c0 4.2 3.4 7.5 7.5 7.5s7.5-3.4 7.5-7.5-3.4-7.5-7.5-7.5-7.5 3.4-7.5 7.5M79.2 190.4c1.8 5.7 6.4 10.3 12.5 11.8s12.3-.4 16.6-4.5c-1.8-5.7-6.4-10.3-12.5-11.8s-12.3.4-16.6 4.5M96 160.8c.4-5.3-1.9-10.7-6.5-14.1-4.6-3.3-10.4-3.8-15.4-1.8-.4 5.3 1.9 10.7 6.5 14.1 4.6 3.3 10.4 3.8 15.4 1.8m16.1-75.3c0-3.9-3.1-7-7-7s-7 3.1-7 7 3.1 7 7 7 7-3.1 7-7m1.3 40.4c.3-4.8-1.7-9.6-5.8-12.7-4.1-3-9.4-3.4-13.8-1.6-.3 4.8 1.7 9.6 5.8 12.7 4.1 3 9.4 3.4 13.8 1.6M126.7 227c-4.4-4-10.7-5.7-16.7-4-6.1 1.7-10.5 6.5-12.1 12.2 4.4 4 10.7 5.7 16.7 4 6.1-1.7 10.5-6.5 12.1-12.2m-.5-60.7c0 4.3 3.5 7.8 7.8 7.8s7.8-3.5 7.8-7.8-3.5-7.8-7.8-7.8-7.8 3.5-7.8 7.8m23.5-81.9c.9-5.9-1-12-5.8-16.2-4.8-4.1-11.1-5.2-16.8-3.5-.9 5.9 1 12 5.8 16.2 4.8 4.1 11.1 5.2 16.8 3.5m8.9 53.8c.4-5.3-1.9-10.7-6.5-14.1-4.6-3.3-10.4-3.8-15.4-1.8-.4 5.3 1.9 10.7 6.5 14.1 4.6 3.3 10.4 3.8 15.4 1.8m14.5-80c.9-4.1-.4-8.1-3.2-10.9-3.7 1.3-6.7 4.3-7.6 8.4s.4 8.1 3.2 10.9c3.7-1.3 6.7-4.3 7.6-8.4m11.7 48.1c1.4-4.8 0-9.8-3.1-13.3-4.5 1.3-8.3 4.8-9.7 9.6s0 9.8 3.1 13.3c4.5-1.3 8.3-4.8 9.7-9.6m26-28.7c3.4-5.6 3.9-12.7.8-18.9-1.1-2.1-2.6-3.8-4.2-5.3-3.2-2.9-7.2-4.8-11.5-5.1-3.4 5.6-3.9 12.7-.8 18.9 3.2 6.2 9.2 9.9 15.7 10.5m16.4 25.6c-5.6 1.9-10.2 6.6-11.6 12.7-1.4 6.2.6 12.3 4.8 16.5 5.6-1.9 10.2-6.6 11.6-12.7 1.4-6.2-.6-12.3-4.8-16.5m10.7-18.2c-3.9 0-7 3.1-7 7s3.1 7 7 7 7-3.1 7-7-3.1-7-7-7m9.2-32.1c2.3-4.5 1.9-9.7-.6-13.7-4.7.4-9.2 3.1-11.4 7.6-2.3 4.5-1.9 9.7.6 13.7 4.7-.4 9.2-3.1 11.4-7.6m4 14.2c-3.3-2.1-7.6-2.5-11.3-.7s-6.1 5.4-6.5 9.3c3.3 2.1 7.6 2.5 11.3.7s6.1-5.4 6.5-9.3m11.8 83.9c-4.2 1.4-7.6 4.9-8.7 9.5s.5 9.2 3.6 12.4c4.2-1.5 7.6-4.9 8.7-9.5s-.5-9.2-3.6-12.4m16.6-73.6c3.1-4 3.7-9.1 2.1-13.6-4.7-.5-9.6 1.3-12.7 5.3s-3.7 9.1-2.1 13.6c4.7.5 9.6-1.3 12.7-5.3m19.5 28.7c-4.4-4-10.7-5.7-16.7-4-6.1 1.7-10.5 6.5-12.1 12.2 4.4 4 10.7 5.7 16.7 4 6.1-1.7 10.5-6.5 12.1-12.2m.5 126.3c0-4.6-3.8-8.4-8.4-8.4s-8.4 3.8-8.4 8.4 3.8 8.4 8.4 8.4 8.4-3.7 8.4-8.4m22.6-73.6c-3.3-3-8-4.3-12.5-3-4.6 1.3-7.8 4.9-9.1 9.2 3.3 3 8 4.3 12.6 3s7.8-4.9 9.1-9.2"/></g><g transform="translate(209.96,686.32) scale(0.04886)"><path fill="#1f1b16" d="M104.0 -46Q104.0 -84 146.0 -97L204.0 -110Q228.0 -117 240.5 -131.0Q253.0 -145 253.0 -167V-1233Q253.0 -1255 240.5 -1269.0Q228.0 -1283 204.0 -1290L146.0 -1303Q104.0 -1316 104.0 -1354Q104.0 -1376 119.0 -1388.0Q134.0 -1400 165.0 -1400H696.0Q881.0 -1400 1033.0 -1345.5Q1185.0 -1291 1294.5 -1191.5Q1404.0 -1092 1463.0 -956.0Q1522.0 -820 1522.0 -656Q1522.0 -467 1434.0 -318.5Q1346.0 -170 1181.5 -85.0Q1017.0 0 787.0 0H165.0Q134.0 0 119.0 -12.5Q104.0 -25 104.0 -46ZM758.0 -100Q892.0 -100 991.5 -162.5Q1091.0 -225 1146.0 -349.5Q1201.0 -474 1201.0 -662Q1201.0 -810 1163.5 -927.5Q1126.0 -1045 1055.5 -1128.5Q985.0 -1212 885.5 -1256.0Q786.0 -1300 661.0 -1300H563.0V-192Q563.0 -144 590.0 -122.0Q617.0 -100 671.0 -100ZM2275.0 -127V-148L2256.0 -152V-749Q2256.0 -819 2220.5 -857.5Q2185.0 -896 2120.0 -896Q2061.0 -896 2029.0 -871.0Q1997.0 -846 1997.0 -809V-721Q1997.0 -661 1957.0 -628.5Q1917.0 -596 1844.0 -596Q1782.0 -596 1750.0 -625.5Q1718.0 -655 1718.0 -706Q1718.0 -769 1770.0 -829.5Q1822.0 -890 1923.0 -929.5Q2024.0 -969 2172.0 -969Q2356.0 -969 2445.5 -894.5Q2535.0 -820 2535.0 -693V-173Q2535.0 -145 2546.5 -131.0Q2558.0 -117 2579.0 -117Q2601.0 -117 2612.0 -127.5Q2623.0 -138 2631.0 -149Q2636.0 -156 2642.0 -160.5Q2648.0 -165 2657.0 -165Q2669.0 -165 2675.0 -156.0Q2681.0 -147 2681.0 -132Q2681.0 -98 2657.5 -62.0Q2634.0 -26 2587.5 -0.5Q2541.0 25 2471.0 25Q2382.0 25 2328.5 -15.5Q2275.0 -56 2275.0 -127ZM1676.0 -209Q1676.0 -334 1787.5 -411.0Q1899.0 -488 2099.0 -488Q2164.0 -488 2216.5 -477.0Q2269.0 -466 2307.0 -447L2285.0 -383Q2251.0 -399 2215.5 -408.0Q2180.0 -417 2139.0 -417Q2056.0 -417 2009.5 -374.5Q1963.0 -332 1963.0 -257Q1963.0 -182 2002.5 -142.0Q2042.0 -102 2105.0 -102Q2159.0 -102 2208.5 -126.5Q2258.0 -151 2292.0 -195L2314.0 -138Q2259.0 -60 2166.5 -17.5Q2074.0 25 1970.0 25Q1839.0 25 1757.5 -40.0Q1676.0 -105 1676.0 -209ZM3183.0 -902V-160Q3183.0 -129 3191.5 -114.5Q3200.0 -100 3218.0 -94L3256.0 -84Q3275.0 -78 3284.0 -67.5Q3293.0 -57 3293.0 -41Q3293.0 -22 3280.0 -11.0Q3267.0 0 3238.0 0H2844.0Q2816.0 0 2803.0 -11.0Q2790.0 -22 2790.0 -41Q2790.0 -56 2799.0 -66.5Q2808.0 -77 2827.0 -84L2866.0 -94Q2884.0 -101 2892.5 -115.0Q2901.0 -129 2901.0 -160V-733Q2901.0 -759 2893.5 -770.0Q2886.0 -781 2869.0 -784L2816.0 -788Q2798.0 -792 2790.0 -801.0Q2782.0 -810 2782.0 -824Q2782.0 -841 2791.5 -851.0Q2801.0 -861 2828.0 -871L3014.0 -939Q3053.0 -953 3076.5 -959.0Q3100.0 -965 3116.0 -965Q3150.0 -965 3166.5 -947.5Q3183.0 -930 3183.0 -902ZM3020.0 -1118Q2940.0 -1118 2891.5 -1159.5Q2843.0 -1201 2843.0 -1268Q2843.0 -1335 2891.5 -1375.5Q2940.0 -1416 3020.0 -1416Q3101.0 -1416 3149.5 -1375.5Q3198.0 -1335 3198.0 -1268Q3198.0 -1201 3149.5 -1159.5Q3101.0 -1118 3020.0 -1118ZM3817.0 -1423V-160Q3817.0 -129 3825.5 -114.5Q3834.0 -100 3852.0 -94L3890.0 -84Q3909.0 -78 3918.0 -67.5Q3927.0 -57 3927.0 -41Q3927.0 -22 3914.0 -11.0Q3901.0 0 3872.0 0H3478.0Q3450.0 0 3437.0 -11.0Q3424.0 -22 3424.0 -41Q3424.0 -56 3433.0 -66.5Q3442.0 -77 3461.0 -84L3500.0 -94Q3518.0 -101 3526.5 -115.0Q3535.0 -129 3535.0 -160V-1255Q3535.0 -1280 3527.5 -1291.0Q3520.0 -1302 3503.0 -1305L3450.0 -1309Q3432.0 -1314 3424.0 -1323.0Q3416.0 -1332 3416.0 -1346Q3416.0 -1362 3426.0 -1372.0Q3436.0 -1382 3462.0 -1392L3648.0 -1460Q3688.0 -1475 3711.0 -1481.0Q3734.0 -1487 3751.0 -1487Q3784.0 -1487 3800.5 -1469.5Q3817.0 -1452 3817.0 -1423ZM4677.0 -146 4527.0 124 4118.0 -783Q4101.0 -823 4082.5 -837.5Q4064.0 -852 4025.0 -863Q4006.0 -869 3998.0 -879.0Q3990.0 -889 3990.0 -905Q3990.0 -925 4004.5 -936.0Q4019.0 -947 4043.0 -947H4491.0Q4516.0 -947 4530.0 -936.0Q4544.0 -925 4544.0 -905Q4544.0 -889 4535.0 -879.0Q4526.0 -869 4503.0 -864L4466.0 -857Q4420.0 -847 4412.5 -823.0Q4405.0 -799 4430.0 -739ZM4487.0 159 4551.0 4 4586.0 -66 4850.0 -727Q4874.0 -786 4866.0 -814.0Q4858.0 -842 4812.0 -852L4771.0 -861Q4749.0 -867 4739.5 -878.0Q4730.0 -889 4730.0 -905Q4730.0 -925 4744.0 -936.0Q4758.0 -947 4782.0 -947H5066.0Q5091.0 -947 5105.0 -936.0Q5119.0 -925 5119.0 -905Q5119.0 -891 5110.5 -880.5Q5102.0 -870 5080.0 -862Q5036.0 -848 5012.0 -824.5Q4988.0 -801 4966.0 -745L4609.0 137Q4553.0 271 4505.0 345.0Q4457.0 419 4402.0 447.5Q4347.0 476 4269.0 476Q4153.0 476 4085.5 414.5Q4018.0 353 4018.0 263Q4018.0 198 4049.5 162.0Q4081.0 126 4133.0 126Q4184.0 126 4211.5 156.5Q4239.0 187 4256.0 239L4269.0 277Q4277.0 313 4295.0 331.0Q4313.0 349 4336.0 349Q4361.0 349 4382.0 334.5Q4403.0 320 4428.5 279.5Q4454.0 239 4487.0 159ZM6228.0 -1303 6171.0 -1290Q6147.0 -1283 6134.0 -1269.0Q6121.0 -1255 6121.0 -1233V-171Q6121.0 -133 6143.0 -116.5Q6165.0 -100 6210.0 -100H6376.0Q6433.0 -100 6473.0 -115.5Q6513.0 -131 6545.0 -170.0Q6577.0 -209 6610.0 -281L6670.0 -419Q6682.0 -444 6699.5 -452.5Q6717.0 -461 6740.0 -455Q6764.0 -449 6774.0 -432.5Q6784.0 -416 6776.0 -388L6686.0 -36Q6675.0 1 6658.5 19.0Q6642.0 37 6610.0 37Q6589.0 37 6568.5 28.0Q6548.0 19 6523.5 9.5Q6499.0 0 6462.0 0H5723.0Q5692.0 0 5677.5 -12.5Q5663.0 -25 5663.0 -46Q5663.0 -84 5705.0 -97L5762.0 -110Q5786.0 -117 5799.0 -131.0Q5812.0 -145 5812.0 -167V-1233Q5812.0 -1255 5799.0 -1269.0Q5786.0 -1283 5762.0 -1290L5705.0 -1303Q5663.0 -1316 5663.0 -1354Q5663.0 -1376 5677.5 -1388.0Q5692.0 -1400 5723.0 -1400H6210.0Q6241.0 -1400 6255.5 -1388.0Q6270.0 -1376 6270.0 -1354Q6270.0 -1316 6228.0 -1303ZM7818.0 -591Q7818.0 -538 7788.0 -509.5Q7758.0 -481 7700.0 -481H7076.0V-557H7485.0Q7536.0 -557 7536.0 -603Q7536.0 -735 7488.0 -803.5Q7440.0 -872 7359.0 -872Q7297.0 -872 7249.0 -834.0Q7201.0 -796 7174.0 -725.5Q7147.0 -655 7147.0 -555Q7147.0 -362 7237.5 -265.0Q7328.0 -168 7479.0 -168Q7567.0 -168 7633.5 -203.0Q7700.0 -238 7737.0 -303Q7755.0 -323 7765.5 -330.0Q7776.0 -337 7787.0 -337Q7803.0 -337 7810.0 -322.5Q7817.0 -308 7817.0 -288Q7813.0 -204 7757.0 -132.5Q7701.0 -61 7606.0 -18.0Q7511.0 25 7388.0 25Q7243.0 25 7131.0 -34.5Q7019.0 -94 6955.5 -201.5Q6892.0 -309 6892.0 -453Q6892.0 -604 6952.5 -721.0Q7013.0 -838 7126.0 -904.0Q7239.0 -970 7396.0 -970Q7530.0 -970 7624.5 -921.5Q7719.0 -873 7768.5 -787.5Q7818.0 -702 7818.0 -591ZM8358.0 -880Q8289.0 -880 8250.5 -845.5Q8212.0 -811 8212.0 -758Q8212.0 -725 8226.5 -698.5Q8241.0 -672 8282.0 -650.0Q8323.0 -628 8402.0 -609Q8556.0 -577 8640.0 -529.0Q8724.0 -481 8757.0 -418.5Q8790.0 -356 8790.0 -279Q8790.0 -140 8692.0 -57.5Q8594.0 25 8407.0 25Q8341.0 25 8299.0 13.5Q8257.0 2 8230.0 -9.5Q8203.0 -21 8182.0 -21Q8161.0 -21 8147.5 -9.5Q8134.0 2 8122.0 13.5Q8110.0 25 8090.0 25Q8072.0 25 8063.0 15.0Q8054.0 5 8046.0 -22L7980.0 -223Q7969.0 -258 7973.5 -280.0Q7978.0 -302 8000.0 -311Q8023.0 -319 8040.0 -310.5Q8057.0 -302 8072.0 -279Q8117.0 -201 8168.0 -154.5Q8219.0 -108 8275.5 -87.0Q8332.0 -66 8391.0 -66Q8477.0 -66 8519.5 -101.0Q8562.0 -136 8562.0 -194Q8562.0 -229 8544.0 -257.5Q8526.0 -286 8477.0 -309.5Q8428.0 -333 8335.0 -354Q8206.0 -382 8129.5 -426.5Q8053.0 -471 8019.5 -534.0Q7986.0 -597 7986.0 -680Q7986.0 -767 8031.0 -832.0Q8076.0 -897 8156.0 -933.5Q8236.0 -970 8341.0 -970Q8409.0 -970 8450.0 -958.0Q8491.0 -946 8517.5 -933.5Q8544.0 -921 8566.0 -921Q8590.0 -921 8604.0 -933.5Q8618.0 -946 8631.0 -958.0Q8644.0 -970 8663.0 -970Q8678.0 -970 8688.5 -959.5Q8699.0 -949 8704.0 -923L8753.0 -732Q8760.0 -695 8756.5 -674.0Q8753.0 -653 8730.0 -644Q8708.0 -635 8691.0 -646.0Q8674.0 -657 8657.0 -685Q8595.0 -791 8516.5 -835.5Q8438.0 -880 8358.0 -880ZM9334.0 -880Q9265.0 -880 9226.5 -845.5Q9188.0 -811 9188.0 -758Q9188.0 -725 9202.5 -698.5Q9217.0 -672 9258.0 -650.0Q9299.0 -628 9378.0 -609Q9532.0 -577 9616.0 -529.0Q9700.0 -481 9733.0 -418.5Q9766.0 -356 9766.0 -279Q9766.0 -140 9668.0 -57.5Q9570.0 25 9383.0 25Q9317.0 25 9275.0 13.5Q9233.0 2 9206.0 -9.5Q9179.0 -21 9158.0 -21Q9137.0 -21 9123.5 -9.5Q9110.0 2 9098.0 13.5Q9086.0 25 9066.0 25Q9048.0 25 9039.0 15.0Q9030.0 5 9022.0 -22L8956.0 -223Q8945.0 -258 8949.5 -280.0Q8954.0 -302 8976.0 -311Q8999.0 -319 9016.0 -310.5Q9033.0 -302 9048.0 -279Q9093.0 -201 9144.0 -154.5Q9195.0 -108 9251.5 -87.0Q9308.0 -66 9367.0 -66Q9453.0 -66 9495.5 -101.0Q9538.0 -136 9538.0 -194Q9538.0 -229 9520.0 -257.5Q9502.0 -286 9453.0 -309.5Q9404.0 -333 9311.0 -354Q9182.0 -382 9105.5 -426.5Q9029.0 -471 8995.5 -534.0Q8962.0 -597 8962.0 -680Q8962.0 -767 9007.0 -832.0Q9052.0 -897 9132.0 -933.5Q9212.0 -970 9317.0 -970Q9385.0 -970 9426.0 -958.0Q9467.0 -946 9493.5 -933.5Q9520.0 -921 9542.0 -921Q9566.0 -921 9580.0 -933.5Q9594.0 -946 9607.0 -958.0Q9620.0 -970 9639.0 -970Q9654.0 -970 9664.5 -959.5Q9675.0 -949 9680.0 -923L9729.0 -732Q9736.0 -695 9732.5 -674.0Q9729.0 -653 9706.0 -644Q9684.0 -635 9667.0 -646.0Q9650.0 -657 9633.0 -685Q9571.0 -791 9492.5 -835.5Q9414.0 -880 9334.0 -880ZM10440.0 -970Q10595.0 -970 10712.0 -907.0Q10829.0 -844 10894.5 -731.5Q10960.0 -619 10960.0 -470Q10960.0 -329 10892.5 -217.0Q10825.0 -105 10706.0 -40.0Q10587.0 25 10430.0 25Q10276.0 25 10159.5 -39.0Q10043.0 -103 9977.0 -215.5Q9911.0 -328 9911.0 -475Q9911.0 -618 9978.5 -729.5Q10046.0 -841 10165.0 -905.5Q10284.0 -970 10440.0 -970ZM10511.0 -80Q10579.0 -90 10620.5 -142.5Q10662.0 -195 10673.5 -287.0Q10685.0 -379 10661.0 -508Q10638.0 -637 10594.0 -720.5Q10550.0 -804 10490.0 -841.0Q10430.0 -878 10360.0 -866Q10291.0 -855 10249.5 -802.5Q10208.0 -750 10197.5 -658.5Q10187.0 -567 10210.0 -437Q10233.0 -309 10277.0 -225.5Q10321.0 -142 10381.0 -105.0Q10441.0 -68 10511.0 -80ZM11502.0 -902V-160Q11502.0 -129 11511.0 -115.0Q11520.0 -101 11538.0 -94L11574.0 -84Q11606.0 -71 11606.0 -44Q11606.0 0 11550.0 0H11164.0Q11136.0 0 11123.0 -11.0Q11110.0 -22 11110.0 -41Q11110.0 -56 11118.5 -66.5Q11127.0 -77 11146.0 -84L11186.0 -94Q11204.0 -101 11212.5 -115.0Q11221.0 -129 11221.0 -160V-733Q11221.0 -759 11213.5 -770.0Q11206.0 -781 11189.0 -784L11136.0 -788Q11118.0 -792 11110.0 -801.0Q11102.0 -810 11102.0 -824Q11102.0 -841 11111.5 -851.0Q11121.0 -861 11148.0 -871L11334.0 -939Q11372.0 -953 11395.0 -959.0Q11418.0 -965 11439.0 -965Q11470.0 -965 11486.0 -947.5Q11502.0 -930 11502.0 -902ZM11472.0 -679 11426.0 -726 11465.0 -761Q11592.0 -877 11686.5 -923.5Q11781.0 -970 11864.0 -970Q11993.0 -970 12071.5 -888.0Q12150.0 -806 12150.0 -668V-163Q12150.0 -130 12159.5 -115.0Q12169.0 -100 12188.0 -94L12223.0 -84Q12243.0 -77 12251.5 -66.5Q12260.0 -56 12260.0 -41Q12260.0 -22 12247.0 -11.0Q12234.0 0 12206.0 0H11819.0Q11763.0 0 11763.0 -44Q11763.0 -71 11794.0 -84L11832.0 -94Q11852.0 -101 11860.5 -116.0Q11869.0 -131 11869.0 -163V-627Q11869.0 -715 11826.0 -758.5Q11783.0 -802 11711.0 -802Q11666.0 -802 11615.5 -781.0Q11565.0 -760 11512.0 -714Z"/></g><g transform="translate(375.88,808.47) scale(0.04886)"><path fill="#1f1b16" d="M541.0 -46Q541.0 -25 526.5 -13.0Q512.0 -1 480.0 0H148.0Q117.0 -1 101.5 -13.0Q86.0 -25 86.0 -46Q86.0 -81 130.0 -98L177.0 -112Q223.0 -129 240.0 -150.0Q257.0 -171 257.0 -218V-1088Q257.0 -1120 249.0 -1140.0Q241.0 -1160 212.0 -1195L128.0 -1301Q112.0 -1323 106.0 -1335.0Q100.0 -1347 100.0 -1359Q100.0 -1379 113.5 -1389.5Q127.0 -1400 150.0 -1400H379.0Q409.0 -1400 428.5 -1389.5Q448.0 -1379 469.0 -1351L1246.0 -320L1199.0 -204V-1182Q1199.0 -1228 1183.5 -1249.5Q1168.0 -1271 1119.0 -1288L1072.0 -1302Q1028.0 -1321 1028.0 -1354Q1028.0 -1376 1043.0 -1388.0Q1058.0 -1400 1089.0 -1400H1421.0Q1453.0 -1400 1468.0 -1388.0Q1483.0 -1376 1483.0 -1354Q1483.0 -1320 1439.0 -1302L1392.0 -1288Q1346.0 -1272 1329.5 -1251.0Q1313.0 -1230 1313.0 -1182V-286Q1313.0 -254 1318.5 -231.0Q1324.0 -208 1339.0 -188L1401.0 -107Q1419.0 -82 1423.5 -69.5Q1428.0 -57 1428.0 -44Q1428.0 -24 1414.0 -12.0Q1400.0 0 1375.0 0H1109.0Q1061.0 0 1061.0 -38Q1061.0 -54 1055.0 -68.5Q1049.0 -83 1020.0 -122L276.0 -1112L371.0 -1178V-218Q371.0 -173 386.5 -151.5Q402.0 -130 450.0 -112L497.0 -98Q541.0 -80 541.0 -46ZM2149.0 -970Q2304.0 -970 2421.0 -907.0Q2538.0 -844 2603.5 -731.5Q2669.0 -619 2669.0 -470Q2669.0 -329 2601.5 -217.0Q2534.0 -105 2415.0 -40.0Q2296.0 25 2139.0 25Q1985.0 25 1868.5 -39.0Q1752.0 -103 1686.0 -215.5Q1620.0 -328 1620.0 -475Q1620.0 -618 1687.5 -729.5Q1755.0 -841 1874.0 -905.5Q1993.0 -970 2149.0 -970ZM2220.0 -80Q2288.0 -90 2329.5 -142.5Q2371.0 -195 2382.5 -287.0Q2394.0 -379 2370.0 -508Q2347.0 -637 2303.0 -720.5Q2259.0 -804 2199.0 -841.0Q2139.0 -878 2069.0 -866Q2000.0 -855 1958.5 -802.5Q1917.0 -750 1906.5 -658.5Q1896.0 -567 1919.0 -437Q1942.0 -309 1986.0 -225.5Q2030.0 -142 2090.0 -105.0Q2150.0 -68 2220.0 -80ZM2866.0 -849 2820.0 -863Q2796.0 -871 2786.0 -881.5Q2776.0 -892 2776.0 -906Q2776.0 -926 2789.5 -936.5Q2803.0 -947 2826.0 -947H2887.0Q2911.0 -947 2927.0 -956.0Q2943.0 -965 2960.0 -988L3069.0 -1141Q3090.0 -1167 3109.0 -1179.0Q3128.0 -1191 3147.0 -1191Q3168.0 -1191 3180.0 -1178.0Q3192.0 -1165 3192.0 -1140V-285Q3192.0 -215 3219.5 -178.0Q3247.0 -141 3296.0 -141Q3333.0 -141 3353.5 -155.5Q3374.0 -170 3386.0 -189.0Q3398.0 -208 3409.5 -222.5Q3421.0 -237 3439.0 -238Q3454.0 -238 3462.5 -228.0Q3471.0 -218 3471.0 -195Q3470.0 -138 3433.5 -89.0Q3397.0 -40 3332.0 -9.5Q3267.0 21 3184.0 21Q3056.0 21 2983.5 -43.5Q2911.0 -108 2911.0 -238V-790Q2911.0 -816 2900.5 -828.5Q2890.0 -841 2866.0 -849ZM3081.0 -848V-947H3412.0Q3435.0 -947 3448.5 -937.5Q3462.0 -928 3462.0 -910Q3462.0 -884 3436.0 -866.0Q3410.0 -848 3352.0 -848ZM4514.0 -591Q4514.0 -538 4484.0 -509.5Q4454.0 -481 4396.0 -481H3772.0V-557H4181.0Q4232.0 -557 4232.0 -603Q4232.0 -735 4184.0 -803.5Q4136.0 -872 4055.0 -872Q3993.0 -872 3945.0 -834.0Q3897.0 -796 3870.0 -725.5Q3843.0 -655 3843.0 -555Q3843.0 -362 3933.5 -265.0Q4024.0 -168 4175.0 -168Q4263.0 -168 4329.5 -203.0Q4396.0 -238 4433.0 -303Q4451.0 -323 4461.5 -330.0Q4472.0 -337 4483.0 -337Q4499.0 -337 4506.0 -322.5Q4513.0 -308 4513.0 -288Q4509.0 -204 4453.0 -132.5Q4397.0 -61 4302.0 -18.0Q4207.0 25 4084.0 25Q3939.0 25 3827.0 -34.5Q3715.0 -94 3651.5 -201.5Q3588.0 -309 3588.0 -453Q3588.0 -604 3648.5 -721.0Q3709.0 -838 3822.0 -904.0Q3935.0 -970 4092.0 -970Q4226.0 -970 4320.5 -921.5Q4415.0 -873 4464.5 -787.5Q4514.0 -702 4514.0 -591ZM5054.0 -880Q4985.0 -880 4946.5 -845.5Q4908.0 -811 4908.0 -758Q4908.0 -725 4922.5 -698.5Q4937.0 -672 4978.0 -650.0Q5019.0 -628 5098.0 -609Q5252.0 -577 5336.0 -529.0Q5420.0 -481 5453.0 -418.5Q5486.0 -356 5486.0 -279Q5486.0 -140 5388.0 -57.5Q5290.0 25 5103.0 25Q5037.0 25 4995.0 13.5Q4953.0 2 4926.0 -9.5Q4899.0 -21 4878.0 -21Q4857.0 -21 4843.5 -9.5Q4830.0 2 4818.0 13.5Q4806.0 25 4786.0 25Q4768.0 25 4759.0 15.0Q4750.0 5 4742.0 -22L4676.0 -223Q4665.0 -258 4669.5 -280.0Q4674.0 -302 4696.0 -311Q4719.0 -319 4736.0 -310.5Q4753.0 -302 4768.0 -279Q4813.0 -201 4864.0 -154.5Q4915.0 -108 4971.5 -87.0Q5028.0 -66 5087.0 -66Q5173.0 -66 5215.5 -101.0Q5258.0 -136 5258.0 -194Q5258.0 -229 5240.0 -257.5Q5222.0 -286 5173.0 -309.5Q5124.0 -333 5031.0 -354Q4902.0 -382 4825.5 -426.5Q4749.0 -471 4715.5 -534.0Q4682.0 -597 4682.0 -680Q4682.0 -767 4727.0 -832.0Q4772.0 -897 4852.0 -933.5Q4932.0 -970 5037.0 -970Q5105.0 -970 5146.0 -958.0Q5187.0 -946 5213.5 -933.5Q5240.0 -921 5262.0 -921Q5286.0 -921 5300.0 -933.5Q5314.0 -946 5327.0 -958.0Q5340.0 -970 5359.0 -970Q5374.0 -970 5384.5 -959.5Q5395.0 -949 5400.0 -923L5449.0 -732Q5456.0 -695 5452.5 -674.0Q5449.0 -653 5426.0 -644Q5404.0 -635 5387.0 -646.0Q5370.0 -657 5353.0 -685Q5291.0 -791 5212.5 -835.5Q5134.0 -880 5054.0 -880Z"/></g></svg>
